<?xml version="1.0" encoding="utf-8"?>
<!-- Generator: Adobe Illustrator 24.3.0, SVG Export Plug-In . SVG Version: 6.00 Build 0)  -->
<svg version="1.1" id="圖層_1" xmlns="http://www.w3.org/2000/svg" xmlns:xlink="http://www.w3.org/1999/xlink" x="0px" y="0px"
	 viewBox="0 0 695.1 788.3" style="enable-background:new 0 0 695.1 788.3;" xml:space="preserve">
<style type="text/css">
	.st0{fill:#1572B6;}
	.st1{fill:#33A9DC;}
	.st2{fill:#FFFFFF;}
	.st3{fill:#EBEBEB;}
</style>
<g>
	<g>
		<path class="st0" d="M695.1,0l-63.3,709.4l-284.6,78.9L63.3,709.5l0,0L0,0"/>
		<path class="st0" d="M0,0h695.1"/>
	</g>
	<path class="st1" d="M347.5,728l230-63.8L631.6,58H347.5V728L347.5,728z"/>
	<path class="st2" d="M347.5,315.1h115.1l8-89.1H347.5v-87h218.2l-2.1,23.3l-21.4,239.8H347.5V315.1z"/>
	<path class="st3" d="M348.1,541l-0.4,0.1L250.8,515l-6.2-69.4h-87.3l12.2,136.6l178.2,49.5l0.4-0.1L348.1,541L348.1,541L348.1,541z
		"/>
	<path class="st2" d="M455.3,398.4l-10.5,116.5l-97,26.2v90.5l178.4-49.4l1.3-14.7l15.1-169.1L455.3,398.4L455.3,398.4z"/>
	<path class="st3" d="M347.8,138.9v87H137.7l-1.8-19.6l-4-44.1l-2.1-23.3H347.8z M347.5,315.1v87h-95.7l-1.7-19.6l-4-44.1l-2.1-23.3
		L347.5,315.1L347.5,315.1z"/>
</g>
</svg>
