<?xml version="1.0" encoding="utf-8"?>
<!-- Generator: Adobe Illustrator 24.3.0, SVG Export Plug-In . SVG Version: 6.00 Build 0)  -->
<svg version="1.1" id="圖層_1" xmlns="http://www.w3.org/2000/svg" xmlns:xlink="http://www.w3.org/1999/xlink" x="0px" y="0px"
	 viewBox="0 0 270.8 238" style="enable-background:new 0 0 270.8 238;" xml:space="preserve">
<style type="text/css">
	.st0{fill-rule:evenodd;clip-rule:evenodd;fill:#FF2D20;}
</style>
<path class="st0" d="M102.9,123.2v33.9h12.4v5.9H96.3v-39.8H102.9z M138.5,140v-3.6h6.2v26.5h-6.2v-3.6c-0.8,1.3-2,2.4-3.6,3.1
	c-1.5,0.8-3.1,1.1-4.7,1.1c-2,0-3.9-0.4-5.6-1.1c-1.6-0.7-3.1-1.7-4.3-3c-1.2-1.3-2.2-2.8-2.8-4.4c-0.7-1.7-1-3.5-1-5.3
	c0-1.9,0.3-3.6,1-5.3c0.6-1.6,1.6-3.2,2.8-4.5c1.2-1.3,2.7-2.3,4.3-3c1.7-0.7,3.5-1.1,5.6-1.1c1.6,0,3.1,0.4,4.7,1.1
	C136.4,137.7,137.6,138.7,138.5,140z M137.9,152.9c0.4-1,0.6-2.1,0.6-3.2c0-1.1-0.2-2.2-0.6-3.2c-0.4-1-0.9-1.9-1.6-2.7
	c-0.7-0.8-1.5-1.4-2.5-1.8c-1-0.5-2.1-0.7-3.2-0.7s-2.3,0.2-3.2,0.7c-1,0.5-1.8,1.1-2.5,1.8c-0.7,0.8-1.2,1.7-1.6,2.7
	c-0.4,1-0.6,2.1-0.5,3.2c0,1.1,0.2,2.2,0.5,3.2c0.3,1,0.9,1.9,1.6,2.7c0.7,0.8,1.5,1.4,2.5,1.8c1,0.5,2,0.7,3.2,0.7s2.3-0.2,3.2-0.7
	c0.9-0.4,1.8-1.1,2.5-1.8C137,154.8,137.5,153.9,137.9,152.9z M149.6,162.9v-26.5h16.9v6.1h-10.7v20.4H149.6z M189.1,140v-3.6h6.2
	v26.5h-6.2v-3.6c-0.8,1.3-2,2.4-3.6,3.1c-1.5,0.8-3.1,1.1-4.7,1.1c-2,0-3.9-0.4-5.6-1.1c-1.6-0.7-3.1-1.7-4.3-3
	c-1.2-1.3-2.2-2.8-2.8-4.4c-0.7-1.7-1-3.5-1-5.3c0-1.9,0.3-3.6,1-5.3c0.6-1.6,1.6-3.2,2.8-4.5c1.2-1.3,2.7-2.3,4.3-3
	c1.7-0.7,3.5-1.1,5.6-1.1c1.6,0,3.1,0.4,4.7,1.1C187.1,137.7,188.3,138.7,189.1,140z M188.6,152.9c0.4-1,0.6-2.1,0.6-3.2
	c0-1.1-0.2-2.2-0.6-3.2c-0.4-1-0.9-1.9-1.6-2.7c-0.7-0.8-1.5-1.4-2.5-1.8c-1-0.5-2.1-0.7-3.2-0.7c-1.2,0-2.3,0.2-3.2,0.7
	c-1,0.5-1.8,1.1-2.5,1.8c-0.7,0.8-1.2,1.7-1.6,2.7c-0.4,1-0.6,2.1-0.5,3.2c0,1.1,0.2,2.2,0.5,3.2c0.3,1,0.9,1.9,1.6,2.7
	c0.7,0.8,1.5,1.4,2.5,1.8c1,0.5,2,0.7,3.2,0.7s2.3-0.2,3.2-0.7c0.9-0.4,1.8-1.1,2.5-1.8C187.7,154.8,188.2,153.9,188.6,152.9z
	 M220.4,136.5h6.3l-10.2,26.5h-7.8l-10.2-26.5h6.3l7.8,20.3L220.4,136.5z M240.3,135.8c8.5,0,14.3,7.5,13.2,16.2h-20.7
	c0,2.3,2.3,6.7,7.8,6.7c4.7,0,7.9-4.1,7.9-4.1l4.2,3.2c-3.8,4-6.9,5.8-11.7,5.8c-8.6,0-14.5-5.4-14.5-13.9
	C226.6,142,232.7,135.8,240.3,135.8z M232.8,147.4h14.9c0-0.5-0.9-6.7-7.5-6.7S232.9,146.9,232.8,147.4z M257.6,162.9v-39.8h6.2
	v39.8H257.6z M77.3,122.9c0,0.1,0,0.2,0,0.3v16.1c0,0.4-0.2,0.8-0.6,1l-13.6,7.8v15.5c0,0.4-0.2,0.8-0.6,1L34,180.9
	c-0.1,0-0.1,0.1-0.2,0.1c0,0-0.1,0-0.1,0c-0.2,0.1-0.4,0.1-0.6,0c0,0-0.1,0-0.1,0c-0.1,0-0.1,0-0.2-0.1L4.3,164.6
	c-0.4-0.2-0.6-0.6-0.6-1v-48.4c0-0.1,0-0.2,0-0.3c0,0,0-0.1,0-0.1c0-0.1,0-0.1,0.1-0.2c0,0,0.1-0.1,0.1-0.1c0,0,0.1-0.1,0.1-0.1
	c0,0,0.1-0.1,0.1-0.1c0,0,0.1-0.1,0.1-0.1l0,0l14.2-8.1c0.4-0.2,0.8-0.2,1.2,0l14.2,8.1h0c0,0,0.1,0.1,0.1,0.1c0,0,0.1,0.1,0.1,0.1
	c0,0,0.1,0.1,0.1,0.1c0,0,0.1,0.1,0.1,0.1c0,0.1,0.1,0.1,0.1,0.2c0,0,0,0.1,0,0.1c0,0.1,0,0.2,0,0.3v30.3l11.9-6.8v-15.5
	c0-0.1,0-0.2,0-0.3c0,0,0-0.1,0-0.1c0-0.1,0-0.1,0.1-0.2c0,0,0.1-0.1,0.1-0.1c0,0,0.1-0.1,0.1-0.1c0,0,0.1-0.1,0.1-0.1
	c0,0,0.1-0.1,0.1-0.1v0l14.2-8.1c0.4-0.2,0.8-0.2,1.2,0l14.2,8.1h0c0.1,0,0.1,0.1,0.1,0.1c0,0,0.1,0.1,0.1,0.1c0,0,0.1,0.1,0.1,0.1
	c0,0,0.1,0.1,0.1,0.1C77.2,122.6,77.2,122.7,77.3,122.9C77.3,122.8,77.3,122.8,77.3,122.9z M75,138.6v-13.4l-5,2.8l-6.9,3.9v13.4
	L75,138.6L75,138.6z M60.7,162.9v-13.4l-6.8,3.8l-19.3,11v13.6L60.7,162.9L60.7,162.9z M6.1,117.2v45.7l26.1,14.9v-13.6l-13.6-7.7
	l0,0l0,0c0,0-0.1-0.1-0.1-0.1c0,0-0.1-0.1-0.1-0.1l0,0c0,0-0.1-0.1-0.1-0.1c0,0-0.1-0.1-0.1-0.1l0,0c0,0,0-0.1-0.1-0.1
	c0,0,0-0.1-0.1-0.1v0c0-0.1,0-0.1,0-0.2c0,0,0-0.1,0-0.1V124l-6.9-3.9L6.1,117.2z M19.2,108.4l-11.9,6.8l11.9,6.8l11.9-6.8
	C31,115.2,19.2,108.4,19.2,108.4z M25.3,150.7l6.9-3.9v-29.6l-5,2.8l-6.9,3.9v29.6C20.4,153.6,25.3,150.7,25.3,150.7z M61.9,116.4
	L50,123.2l11.9,6.8l11.9-6.8C73.8,123.2,61.9,116.4,61.9,116.4z M60.7,132l-6.9-3.9l-5-2.8v13.4l6.9,3.9l5,2.8V132L60.7,132z
	 M33.4,162.2l17.4-9.9l8.7-4.9l-11.9-6.8L34,148.5l-12.4,7.1L33.4,162.2z"/>
</svg>
